# xmcd
#
# Track frame offsets:
#	150
#	18086
#	38665
#	56972
#	74595
#	95471
#	119918
#	146383
#	165851
#	184549
#	210265
#	227462
#	238263
#	258422
#	268960
#
# Disc length: 3946 seconds
#
# Revision: 1
# Processed by: cddbd v1.5.2PL0 Copyright (c) Steve Scherf et al.
# Submitted via: audiograbber 1.83.01
#
DISCID=d00f680f
DTITLE=Dixie Chicks - The Essential (1/2)
DYEAR=1900
DGENRE=
TTITLE0=Not ready to make nice
TTITLE1=The long way around
TTITLE2=Easy silence
TTITLE3=Lubbock or leave it
TTITLE4=Bitter end
TTITLE5=Silent house
TTITLE6=Lullaby
TTITLE7=Everybody knows
TTITLE8=Long time gone
TTITLE9=Travelin' soldier
TTITLE10=Landslide
TTITLE11=Lil' Jack Slade
TTITLE12=Truth No 2
TTITLE13=White trash wedding
TTITLE14=Top of the world
EXTD=
EXTT0=
EXTT1=
EXTT2=
EXTT3=
EXTT4=
EXTT5=
EXTT6=
EXTT7=
EXTT8=
EXTT9=
EXTT10=
EXTT11=
EXTT12=
EXTT13=
EXTT14=
PLAYORDER=
